# xmcd
#
# Track frame offsets:
#	150
#	9292
#	11766
#	36807
#	57113
#	76756
#	95129
#	119102
#	135347
#	156699
#	181042
#	202791
#	227497
#	231973
#	236816
#	240736
#	245582
#	249260
#	253109
#	256861
#	262100
#	267573
#	271218
#	289492
#	312631
#	329649
#
# Disc length: 4623 seconds
#
# Revision: 1
# Processed by: cddbd v1.5.1PL2 Copyright (c) Steve Scherf et al.
# Submitted via: audiograbber 1.83.01
#
DISCID=7b120d1a
DTITLE=Jörg Sieghard - Playbacks - Blues-Grooves in typischen Tonarten Vol.3 
DYEAR=1900
DGENRE=Blues
TTITLE0=Trailer
TTITLE1=Stimmtöne
TTITLE2=Playback_1 midtempo in A
TTITLE3=Playback_2 Louisiana in C
TTITLE4=Playback_3 midtempo in G
TTITLE5=Playback_4 slow in A-moll
TTITLE6=Playback_5 midtempo in E
TTITLE7=Playback_6 midtempo in F
TTITLE8=Playback 7 fast shuffle in A
TTITLE9=Playback_8 slow Blues in G-Moll
TTITLE10=Playback_9 midtempo in E
TTITLE11=Playback_10 New Orleans Groove in wechselnden Tonarten Bb
TTITLE12=Solo Playback_1
TTITLE13=Solo Playback_2
TTITLE14=Solo Playback_3
TTITLE15=Solo Playback_4
TTITLE16=Solo Playback_5
TTITLE17=Solo Playback_6
TTITLE18=Solo Playback_7
TTITLE19=Solo Playback_8
TTITLE20=Solo Playback_9
TTITLE21=Solo Playback_10
TTITLE22=Bonustrack Jazz Blues in G
TTITLE23=Bonustrack >>Sons and Lovers<<
TTITLE24=Bonustrack >>Testify<<
TTITLE25=Bonustrack >>Take me with you<<
EXTD=Playbacks 
EXTT0=
EXTT1=
EXTT2=
EXTT3=
EXTT4=
EXTT5=
EXTT6=
EXTT7=
EXTT8=
EXTT9=
EXTT10=
EXTT11=
EXTT12=
EXTT13=
EXTT14=
EXTT15=
EXTT16=
EXTT17=
EXTT18=
EXTT19=
EXTT20=
EXTT21=
EXTT22=
EXTT23=
EXTT24=
EXTT25=
PLAYORDER=
